<svg xmlns="http://www.w3.org/2000/svg" id="Layer_1" viewBox="0 0 200 200" width="200" height="200"><defs><style>.cls-1{fill:#fff}.cls-2{fill:#b3025b}.cls-3{fill:#f4bac1}</style></defs><circle cx="100" cy="100" r="99" class="cls-1"/><path d="M155.34 60.28a32.33 32.33 0 0 0-24-10.72 31.77 31.77 0 0 0-18.11 5.66 34.06 34.06 0 0 0-4.82 4c-.34.34-.68.7-1 1.06l-5.58 6-5.58-6a35 35 0 0 0-5-4.44 32.7 32.7 0 0 0-7.55-4.13 31.81 31.81 0 0 0-29.5 3.49 32.53 32.53 0 0 0-4.84 4c-.34.34-.7.7-1 1.08-13 14.09-13 37 0 51.11l31.34 33.87 4.07 4.4 18.09 19.57 2.19-2.37 2-2.19 42.56-46 6.73-7.27c13.05-14.1 13.05-37.03 0-51.12zM151 107.34l-5.76 6.22-43.36 46.86-14-15.14-4.06-4.38-31-33.52c-11-11.87-11-31.16 0-43 .48-.51 1-1 1.5-1.47A27.06 27.06 0 0 1 59 59.2a25.86 25.86 0 0 1 13.27-3.66 25.82 25.82 0 0 1 11.44 2.69 27.6 27.6 0 0 1 8.15 6.09l10 10.76 10-10.76c.48-.51 1-1 1.48-1.47a26 26 0 0 1 4.82-3.63 25.74 25.74 0 0 1 13.27-3.68A26.55 26.55 0 0 1 151 64.32c10.94 11.86 10.94 31.15 0 43.02z" class="cls-2"/><path d="M151 107.34l-5.76 6.22-43.34 46.88-14-15.14 23.58-25.48 1.67-1.84.36-.4 5.72-6.17c13-14.09 13-37 0-51.11l-1-1.06a25.74 25.74 0 0 1 13.27-3.68 26.55 26.55 0 0 1 19.5 8.76c10.94 11.86 10.94 31.15 0 43.02z" class="cls-3"/><path d="M149.6 117.56l-.99 1.1-1.02 1.14-41.54 44.87-2.02 2.19-4.4-4.04.02-.02 2.19-2.37 43.34-46.89.02.02 4.4 4zm-63.09 14.9h-.11a3 3 0 0 1-2.79-2.26L72.08 84.06l-4.54 17.42a3 3 0 0 1-2.9 2.23h-36v-6h33.69l6.91-26.51a3 3 0 0 1 2.9-2.2A3 3 0 0 1 75 71.25l11.92 47.55 11.13-33.37a3 3 0 0 1 5.63-.13l4.78 12.43h17v6h-19a3 3 0 0 1-2.79-1.91l-2.53-6.58-11.74 35.2a3 3 0 0 1-2.89 2.02z" class="cls-2"/><path d="M129.38 91.8a8.9 8.9 0 0 0-8.38 5.94 8.86 8.86 0 0 0 0 6 8.92 8.92 0 1 0 8.39-11.92zm0 11.88a3 3 0 1 1 3-3 3 3 0 0 1-3 3z" class="cls-2"/><path d="M132.33 100.73a2.94 2.94 0 1 1-5.88 0 2.94 2.94 0 1 1 5.88 0z" class="cls-1"/></svg>