<svg xmlns="http://www.w3.org/2000/svg" id="Layer_1" viewBox="0 0 182 182" width="182" height="182"><defs><style>.cls-1{fill:#edc5d9}.cls-2{fill:#b3025b}</style></defs><ellipse cx="114.69" cy="79.54" class="cls-1" rx="12.54" ry="9.04"/><ellipse cx="99.25" cy="106.32" class="cls-1" rx="29.26" ry="21.09"/><path d="M70 55.08a15.66 15.66 0 1 0 15.66 15.67A15.69 15.69 0 0 0 70 55.08zm0 23.47a7.81 7.81 0 1 1 7.83-7.8 7.81 7.81 0 0 1-7.83 7.8z" class="cls-2"/><path d="M99 73.75a28.58 28.58 0 0 0 0-6l1.81-1 9-5.18-1-3a49.38 49.38 0 0 0-3.81-7.98 47.73 47.73 0 0 0-5-7.24l-2.06-2.41-10.76 6.2a28.42 28.42 0 0 0-5.26-3V31.7l-3.11-.57c-1.52-.26-3.09-.47-4.66-.6a49.9 49.9 0 0 0-12.82.6l-3.14.57v12.4a30.87 30.87 0 0 0-5.26 3L42.2 40.9l-2.06 2.41a45.5 45.5 0 0 0-5 7.19 46.29 46.29 0 0 0-3.71 8l-1.08 3L41 67.71c-.1 1-.15 2-.15 3a24.21 24.21 0 0 0 .15 3.07L30.26 80l1.08 3a49.93 49.93 0 0 0 3.69 8c.7 1.21 1.44 2.39 2.22 3.48a39.52 39.52 0 0 0 2.83 3.72l2.06 2.38 10.73-6.2.13.08a28 28 0 0 0 5.13 3v12.4l3.14.58a47.84 47.84 0 0 0 8.71.76 48.57 48.57 0 0 0 8.74-.76l3.14-.55V97.35a29.7 29.7 0 0 0 5.26-3.06l10.76 6.2 2-2.38a49.17 49.17 0 0 0 5-7.17 53.61 53.61 0 0 0 3.69-8l1.09-3zm-.6 13.37a38.9 38.9 0 0 1-2.3 3.56l-3.95-2.28-5.89-3.4-2 1.78-.08.08a20.64 20.64 0 0 1-7.36 4.26l-2.57.88v11.3a46.52 46.52 0 0 1-8.51 0V92l-2.61-.87a20.43 20.43 0 0 1-7.35-4.26L53.71 85l-3.25 1.88-6.54 3.8a.76.76 0 0 0-.08-.11c-.78-1.1-1.51-2.22-2.22-3.45a35.71 35.71 0 0 1-1.94-3.79l9.79-5.63-.58-2.7a21.71 21.71 0 0 1-.44-4.27 24.81 24.81 0 0 1 .42-4.29l.52-2.66-9.71-5.63a37.62 37.62 0 0 1 2-3.82 36.56 36.56 0 0 1 2.27-3.56l9.79 5.65 2-1.8a21.4 21.4 0 0 1 7.4-4.29l2.59-.89V38.19a41.62 41.62 0 0 1 8.35 0h.16v11.25l2.61.87a20.64 20.64 0 0 1 7.36 4.26l1 .92 1 .94 1.1-.63 8.71-5a35.58 35.58 0 0 1 2.3 3.61c.73 1.28 1.39 2.54 1.94 3.77l-.32.18-9.41 5.45.52 2.66a22.17 22.17 0 0 1 .42 4.29 18.86 18.86 0 0 1-.4 4.24l-.55 2.7 1.63.94 8.16 4.74c-.58 1.23-1.23 2.48-1.94 3.74z" class="cls-2"/><path d="M91.07 75a18.83 18.83 0 0 0 .45-4.23 22.2 22.2 0 0 0-.42-4.3l-.52-2.66 9.73-5.63a42.35 42.35 0 0 0-1.94-3.77 35.58 35.58 0 0 0-2.3-3.61l-9.81 5.68-2-1.86a20.68 20.68 0 0 0-7.35-4.26l-2.62-.87V38.18a44.71 44.71 0 0 0-8.5 0v11.25l-2.6.89a21.4 21.4 0 0 0-7.4 4.29l-2 1.8L44 50.76a36.56 36.56 0 0 0-2.27 3.56 35.55 35.55 0 0 0-2 3.82l9.7 5.63-.52 2.66a24.83 24.83 0 0 0-.42 4.3A21 21 0 0 0 48.9 75l.57 2.72-9.78 5.63a33 33 0 0 0 1.93 3.79c.73 1.26 1.49 2.43 2.3 3.56l9.79-5.7 2.07 1.86a20.14 20.14 0 0 0 7.35 4.26l2.62.87v11.3a46.41 46.41 0 0 0 8.5 0V92l2.62-.87a20.39 20.39 0 0 0 7.35-4.26l2-1.86 9.81 5.68a38.9 38.9 0 0 0 2.3-3.56c.71-1.25 1.36-2.51 1.94-3.79l-9.79-5.68zM70 86.4a15.66 15.66 0 1 1 15.66-15.65A15.69 15.69 0 0 1 70 86.4z" class="cls-1"/><path d="M152.35 111.92l-1 .92c-3.76 3.32-3.87 4-2.8 6 2.67 5.07-.86 8.89-2.38 10.51l-.42.47v.06c1.86 4.81-.86 7.32-2.38 8.74a9.21 9.21 0 0 0-3.16 5.2c-.08.37-.16.92-.27 1.57-.57 4-1.8 12.27-8.42 16.3-4.5 2.78-10.44 2.94-17.66.53-10.68-3.56-12.93-4.14-15-2.72-1.62 1.3-5.47 10.1-8.19 18.78l-.93 2.72h-76l.21-4.11c.08-1.8.27-4.08.48-6.77.23-3 .49-6.6.73-10.47.13-2.51.26-5.15.34-7.85.26-8.77.05-18.11-1.47-25.56-1.23-6-1.25-6.1-2.8-10.36l-1.38-3.77-.58-1.62.42-.24 27.56-15.86 6.59-3.82 6.57-3.76.05.07 3.88 6.73-1.34.76L18.91 114c1.44 4 1.62 4.71 2.83 10.65 1.64 8.08 1.88 18 1.62 27.13-.08 2.7-.19 5.34-.34 7.85 0 .37-.06.71-.06 1-.23 3.55-.47 6.85-.68 9.68v.34c-.08.86-.13 1.67-.18 2.43H84c2.23-6.62 6.33-17.4 10.36-20.15 5.45-3.76 10.23-2.17 21.8 1.7 5 1.68 8.76 1.76 11.17.29 3.48-2.14 4.29-7.56 4.79-10.8a17.68 17.68 0 0 1 .42-2.33 16.89 16.89 0 0 1 5.41-9l.34-.31a1.19 1.19 0 0 0-.13-.29 5.94 5.94 0 0 1 .76-6.46 13.6 13.6 0 0 1 1.49-1.78 8.56 8.56 0 0 0 1.23-1.57c-3.42-6.31-.47-10.68 2.51-13.61.69-.71 1.39-1.31 2-1.86 3.92-3.48 5.26-4.63.73-10a87.41 87.41 0 0 1-6-8 41 41 0 0 1-4.23-7.93 27.16 27.16 0 0 1-1-3.09 4.38 4.38 0 0 1-.13-.52 42.84 42.84 0 0 1-.94-10.63v-3.19a64.55 64.55 0 0 0-1.28-11.22 27.75 27.75 0 0 0-.87-3.14 37.66 37.66 0 0 0-3.11-6.7 52.34 52.34 0 0 0-9.08-11.38c-8.42-8.09-21-15.44-38.2-18.79V38.4h-7.95V3.16l4.5.65a92.06 92.06 0 0 1 33.55 11.51 74.79 74.79 0 0 1 11 7.93c1.44 1.26 2.8 2.57 4.09 3.9 7.14 7.35 12 15.73 13.65 23.6a74 74 0 0 1 1.5 16 37.13 37.13 0 0 0 .7 8.68 22.23 22.23 0 0 0 1.26 3.77c1.49 3.38 4.05 7.33 8.55 12.69 8.67 10.3 3.39 16.45-.54 20.03z" class="cls-2"/><path d="M43.2 6.09h7.85v16.54H43.2z" class="cls-2" transform="rotate(-22.5 47.132 14.366)"/><path d="M21.41 21.35h7.85v16.54h-7.85z" class="cls-2" transform="rotate(-47.49 25.333 29.62)"/><path d="M8.11 44.39h7.85v16.54H8.11z" class="cls-2" transform="matrix(.3 -.95 .95 .3 -41.81 48.29)"/><path d="M1.44 75.23h16.54v7.85H1.44z" class="cls-2" transform="rotate(-7.48 9.729 79.143)"/></svg>