<svg height="182" viewBox="0 0 182 182" width="182" xmlns="http://www.w3.org/2000/svg"><path d="m163.06 62.51-72.99-51.82-72.98 51.81-4.54-6.4 77.52-55.04 77.53 55.04zm-51.05 21.84h.16v40.68h-.16z" fill="#b3025b"/><path d="m140.9 62.47v65.05l-14.13 5.26a13 13 0 0 0 -11.88-7.78h-2.71v-40.65h-.18v-26.21l-7.42-5.29-25.9-18.37 11.38-8.09z" fill="#fdd8aa"/><g fill="#b3025b"><path d="m112.01 84.35h.16v40.68h-.16z"/><path d="m175.78 132.75c-6.09-10.6-14.07-12.92-27.45-8v-57l14.73 10.45 4.56-6.41-77.56-55-18.15 12.88-6.78 4.81-52.6 37.31 4.56 6.41 14.71-10.44v52.78c-8.18 1.52-18.6 3.83-30.8 6.64l1.78 7.67c18.36-4.27 36.44-8.21 44.13-8.5 6.62-.24 9.94.63 20.88 3.52 3.07.82 6.71 1.76 11.15 2.88l36 .14a5.13 5.13 0 0 1 0 10.26h-43.48v7.85h43.43a13 13 0 0 0 12.67-10.15l23.21-8.61c10.25-3.85 13.94-2 16.82 2.2l-56.73 32.73-.86.5c-7.19 4.06-14.65 8.27-28.78 3.19l-4.47-1.62c-16.46-5.94-20.91-7.54-30.12-7.2-7.88.29-23.94 3.69-45.63 8.69l1.78 7.64c18.36-4.24 36.44-8.22 44.13-8.47s11.45 1.07 27.17 6.74l4.5 1.6a42.52 42.52 0 0 0 14.6 2.76c9.13 0 15.56-3.61 20.67-6.51l64.54-37.23zm-71.17-7.75h-24.2a445 445 0 0 1 -4.86-1.25v-31.84h29.06zm22.16 7.75a13 13 0 0 0 -11.88-7.75h-2.89v-40.65h-44v37.44c-9.86-2.59-14-3.53-21.35-3.3a71.59 71.59 0 0 0 -7.4.78v-56.79l32.66-23.19 6.77-4.81 11.38-8.09 50.84 36.08v65.05z"/></g></svg>