<svg xmlns="http://www.w3.org/2000/svg" id="Layer_1" viewBox="0 0 200 200" width="200" height="200"><defs><style>.cls-1{fill:#fff}.cls-2{fill:#b3025b}.cls-3{fill:#fdd8aa}</style></defs><circle cx="100" cy="100" r="99" class="cls-1"/><path d="M158.22 78.27l-55.58-39.45-55.58 39.45-3.46-4.87 59.04-41.92 59.04 41.92-3.46 4.87zm-38.88 16.64h.13v30.98h-.13z" class="cls-2"/><path d="M141.34 78.25v49.54l-10.76 4a9.92 9.92 0 0 0-9.05-5.9h-2.06v-31h-.13V75l-5.65-4L94 56.93l8.67-6.16z" class="cls-3"/><path d="M119.34 94.91h.13v30.98h-.13z" class="cls-2"/><path d="M167.91 131.77c-4.65-8.07-10.72-9.84-20.91-6.07V82.26l11.22 8 3.47-4.89-59.06-41.9-13.83 9.8-5.16 3.66-40 28.41 3.47 4.89 11.2-8v40.2c-6.23 1.16-14.16 2.92-23.46 5.06l1.36 5.84c14-3.25 27.75-6.26 33.61-6.48 5-.18 7.57.48 15.9 2.69 2.33.62 5.1 1.34 8.49 2.19l27.37.1a3.91 3.91 0 0 1 0 7.82H88.46v6h33.07a9.9 9.9 0 0 0 9.65-7.73l17.68-6.56c7.8-2.93 10.61-1.49 12.81 1.68L118.46 158l-.65.38c-5.48 3.09-11.16 6.3-21.92 2.44l-3.4-1.24C80 155 76.56 153.81 69.55 154.07c-6 .22-18.23 2.81-34.75 6.61l1.36 5.82c14-3.23 27.75-6.25 33.61-6.45s8.71.81 20.68 5.14l3.43 1.22a32.61 32.61 0 0 0 11.12 2.1c7 0 11.85-2.75 15.74-4.95l49.15-28.36zm-54.21-5.88H95.28l-3.71-1v-24.22h22.13zm16.88 5.9a9.92 9.92 0 0 0-9.05-5.9h-2.19v-31H85.81v28.51c-7.51-2-10.66-2.69-16.26-2.51a53.18 53.18 0 0 0-5.63.6V78.26L88.8 60.6l5.2-3.67 8.67-6.16 38.71 27.48v49.54z" class="cls-2"/></svg>