<svg xmlns="http://www.w3.org/2000/svg" id="Layer_1" viewBox="0 0 132 112" width="132" height="112"><defs><style>.cls-1{fill:#dfc9d8}</style></defs><path d="M47.38 68.52Q54.31 74.79 54.3 85q0 11.86-6.59 18.78t-17.46 6.92q-14.17 0-21.75-10.7T.92 69.84q0-46.12 45.14-68.54l10.22 19.77q-14.83 7.59-21.91 17.47t-7.09 24.05a10 10 0 0 1 3-.33 24.61 24.61 0 0 1 17.1 6.26zm74.8 0q6.93 6.27 6.92 16.48 0 11.86-6.59 18.78t-17.46 6.92q-14.17 0-21.75-10.7t-7.58-30.16q0-46.12 45.14-68.54l10.22 19.77q-14.84 7.59-21.91 17.47t-7.09 24.05a10 10 0 0 1 3-.33 24.61 24.61 0 0 1 17.1 6.26z" class="cls-1"/></svg>