<svg xmlns="http://www.w3.org/2000/svg" id="Layer_1" viewBox="0 0 62 84" width="62" height="84"><defs><style>.cls-1{fill:#b3025b}</style></defs><path d="M60.91 30a39.65 39.65 0 0 1-5.39 19.92 123.46 123.46 0 0 1-10.89 15.89C40.27 71.43 35.85 77 31.47 82.63c-.25.31-.41.58-.79.08C24 74.06 17 65.7 10.77 56.68a55.59 55.59 0 0 1-8-15.51C.54 33.59.24 26 3.42 18.6 7.91 8.19 15.86 2 27.09.31c15.3-2.26 30 8.16 33.18 23.38q.28 1.33.45 2.7a19.93 19.93 0 0 1 .19 3.61zm-7-.14a19.83 19.83 0 0 0-.3-3.62A22.81 22.81 0 0 0 29.12 7.1C21 7.83 15 11.91 11 19c-3.26 5.7-3.46 11.86-2 18.16a42.62 42.62 0 0 0 6.29 13.54C20 57.87 25.5 64.43 30.7 71.21c.41.55.57.13.78-.14 2.85-3.66 5.72-7.31 8.56-11a106.39 106.39 0 0 0 9.45-13.87 33.37 33.37 0 0 0 4.41-16.38z" class="cls-1"/><path d="M21.6 30.3a9.45 9.45 0 1 1 9.4 9.53 9.39 9.39 0 0 1-9.4-9.53z" class="cls-1"/></svg>