<svg xmlns="http://www.w3.org/2000/svg" id="Layer_1" viewBox="0 0 200 200" width="200" height="200"><defs><style>.cls-1{fill:#fff}.cls-2{fill:#dfc9d8}.cls-3{fill:#b3025b}</style></defs><circle cx="100" cy="100" r="99" class="cls-1"/><path d="M161.56 100.13h-19.81v10.36l-3.9-4.01-5.98-6.11-.24-.24h-13.58V87.36H87.94V46.21l32.84 24.05 7.49 5.49 33.29 24.38z" class="cls-2"/><path d="M82.13 40.41v47H32.64v69.42h19.92v18.47l18.5-18.47h47v-50.9h11.13l2.69 2.74 6 6.13 9.7 9.94v-18.81h19.81V40.41zm29.93 110.39H68.57l-10 10v-10H38.62V93.34h73.44zm49.5-50.67h-19.81v10.36l-3.9-4-6-6.11-.24-.24h-13.56V87.36H87.94V46.21h73.62z" class="cls-3"/><circle cx="142.99" cy="72.7" r="4.66" class="cls-3"/><circle cx="124.75" cy="72.7" r="4.66" class="cls-3"/><circle cx="106.51" cy="72.7" r="4.66" class="cls-3"/><path d="M83.4 142.94H67.28v-12.81H54.49V114h12.79v-12.78H83.4V114h12.79v16.12H83.4z" class="cls-3"/><path d="M90.21 119.98v4.17h-12.8v12.81h-4.16v-12.81H60.46v-4.17h12.79v-12.79h4.16v12.79h12.8z" class="cls-2"/></svg>