<svg xmlns="http://www.w3.org/2000/svg" id="Layer_1" viewBox="0 0 200 200" width="200" height="200"><defs><style>.cls-1{fill:#fff}.cls-2{fill:#edc5d9}.cls-3{fill:#b3025b}</style></defs><circle cx="100" cy="100" r="99" class="cls-1"/><ellipse cx="132.44" cy="90.22" class="cls-2" rx="9.55" ry="6.88"/><ellipse cx="120.69" cy="110.62" class="cls-2" rx="22.28" ry="16.06"/><path d="M98.4 71.59a11.93 11.93 0 1 0 11.93 11.94A12 12 0 0 0 98.4 71.59zm0 17.88a6 6 0 1 1 5.95-5.94 6 6 0 0 1-5.95 5.94z" class="cls-3"/><path d="M120.47 85.81a22.1 22.1 0 0 0 0-4.6l1.38-.8 6.81-3.94-.79-2.26a37.87 37.87 0 0 0-2.83-6 35.75 35.75 0 0 0-3.83-5.52l-1.57-1.84-8.19 4.73a20.55 20.55 0 0 0-4-2.31v-9.48l-2.37-.44c-1.15-.2-2.35-.36-3.55-.46a38.34 38.34 0 0 0-9.76.46l-2.39.44v9.45a22.81 22.81 0 0 0-4 2.31l-8.17-4.73-1.57 1.84A38.26 38.26 0 0 0 69 74.21l-.82 2.28 8.17 4.72a22.25 22.25 0 0 0-.12 2.29 18.21 18.21 0 0 0 .14 2.33l-8.19 4.72.82 2.27a36.37 36.37 0 0 0 2.81 6.06 30.67 30.67 0 0 0 1.69 2.65 29.6 29.6 0 0 0 2.15 2.83l1.57 1.82 8.17-4.73.1.06a20.64 20.64 0 0 0 3.91 2.27v9.45l2.39.44a36.06 36.06 0 0 0 6.64.57 36.55 36.55 0 0 0 6.65-.57l2.39-.42v-9.47a21.71 21.71 0 0 0 4-2.33l8.19 4.73 1.55-1.82A37.18 37.18 0 0 0 125 98.9a40.17 40.17 0 0 0 2.81-6.06l.83-2.29zM120 96a28.75 28.75 0 0 1-1.76 2.71l-3-1.73-4.48-2.59-1.49 1.35-.06.06a15.73 15.73 0 0 1-5.6 3.25l-2 .66v8.61a35 35 0 0 1-6.47 0V99.7l-2-.66a15.4 15.4 0 0 1-5.6-3.25L86 94.38l-2.47 1.43-5 2.89-.06-.08A27.54 27.54 0 0 1 76.8 96a25.44 25.44 0 0 1-1.48-2.89l7.45-4.28-.43-2.07A16 16 0 0 1 82 83.5a18.66 18.66 0 0 1 .32-3.27l.39-2-7.39-4.28a27.82 27.82 0 0 1 1.5-2.95 25.54 25.54 0 0 1 1.73-2.71L86 72.6l1.56-1.37A16.21 16.21 0 0 1 93.2 68l2-.68v-8.59a32.09 32.09 0 0 1 6.35 0h.12v8.57l2 .66a15.73 15.73 0 0 1 5.6 3.25l.77.69.78.72.84-.48 6.63-3.84a26.79 26.79 0 0 1 1.71 2.75c.55 1 1 1.93 1.47 2.87l-.24.14-7.17 4.14.4 2a17.71 17.71 0 0 1 .31 3.27 15.27 15.27 0 0 1-.33 3.23l-.42 2 1.23.72 6.22 3.6c-.42 1.06-.92 1.98-1.47 2.98z" class="cls-3"/><path d="M114.46 86.74a14.71 14.71 0 0 0 .34-3.23 16.92 16.92 0 0 0-.32-3.27l-.4-2 7.41-4.29c-.42-.93-.92-1.89-1.47-2.86a26.79 26.79 0 0 0-1.76-2.75l-7.47 4.32-1.55-1.42a15.71 15.71 0 0 0-5.6-3.24l-2-.66v-8.62a33.32 33.32 0 0 0-6.47 0v8.55l-2 .68a16.18 16.18 0 0 0-5.64 3.26L86 72.61l-7.45-4.3A25.54 25.54 0 0 0 76.82 71a28.72 28.72 0 0 0-1.5 2.9l7.39 4.29-.39 2a18.66 18.66 0 0 0-.32 3.32 16.08 16.08 0 0 0 .34 3.25l.43 2.07-7.45 4.28A25.44 25.44 0 0 0 76.8 96a30.7 30.7 0 0 0 1.75 2.71L86 94.39l1.58 1.41a15.4 15.4 0 0 0 5.6 3.25l2 .66v8.61a36.79 36.79 0 0 0 6.47 0v-8.61l2-.66a15.73 15.73 0 0 0 5.6-3.25l1.55-1.41 7.47 4.32A30.1 30.1 0 0 0 120 96c.53-1 1-1.91 1.47-2.89L114 88.79zm-16.06 8.7a11.93 11.93 0 1 1 11.93-11.91A11.95 11.95 0 0 1 98.4 95.44z" class="cls-2"/><path d="M161.12 114.88l-.8.7c-2.86 2.53-2.94 3-2.13 4.54 2 3.87-.66 6.78-1.81 8-.1.1-.22.24-.32.36 1.42 3.67-.66 5.58-1.81 6.66a7 7 0 0 0-2.41 4c-.06.28-.12.7-.2 1.2-.44 3-1.38 9.34-6.42 12.41-3.43 2.11-8 2.23-13.45.4-8.13-2.71-9.84-3.15-11.4-2.07-1.23 1-4.16 7.69-6.23 14.3l-.66 2.1h-57.9l.15-3.13c.06-1.38.2-3.11.36-5.16.18-2.31.38-5 .56-8 .1-1.92.2-3.93.26-6 .2-6.68 0-13.79-1.12-19.47a37.5 37.5 0 0 0-2.13-7.89l-1-2.87-.44-1.23.32-.18 21-12.08 5-2.91 5-2.87v.06l3 5.12-1 .58-26 15a40.39 40.39 0 0 1 2.15 8.11c1.26 6.15 1.44 13.67 1.24 20.66-.06 2.05-.14 4.06-.26 6v.79c-.18 2.71-.36 5.22-.52 7.38v.26c-.06.65-.1 1.27-.14 1.85h47.15c1.69-5 4.82-13.25 7.89-15.34 4.14-2.87 7.79-1.66 16.59 1.29 3.83 1.28 6.68 1.34 8.51.22 2.65-1.63 3.27-5.76 3.65-8.23a13.85 13.85 0 0 1 .32-1.77 12.85 12.85 0 0 1 4.12-6.88l.26-.24a1.31 1.31 0 0 0-.1-.21 4.55 4.55 0 0 1 .58-4.93 11.54 11.54 0 0 1 1.14-1.35 7 7 0 0 0 .93-1.2c-2.61-4.8-.36-8.13 1.91-10.36.52-.54 1.06-1 1.54-1.41 3-2.65 4-3.53.56-7.63a67.88 67.88 0 0 1-4.59-6.06 31.17 31.17 0 0 1-3.22-6 21.51 21.51 0 0 1-.78-2.35 3.89 3.89 0 0 1-.1-.4 32.84 32.84 0 0 1-.72-8.09v-2.43a49.9 49.9 0 0 0-1-8.55 21.71 21.71 0 0 0-.66-2.39 29.39 29.39 0 0 0-2.37-5.1 40.13 40.13 0 0 0-6.92-8.67c-6.41-6.15-16-11.75-29.09-14.3v19.77h-6V32.05l3.43.5a70.08 70.08 0 0 1 25.55 8.77 57.23 57.23 0 0 1 8.36 6c1.1 1 2.14 2 3.11 3 5.44 5.6 9.15 12 10.4 18a55.83 55.83 0 0 1 1.14 12.17 28.53 28.53 0 0 0 .54 6.62A18.48 18.48 0 0 0 155 90a42 42 0 0 0 6.52 9.66c6.62 7.81 2.59 12.49-.4 15.22z" class="cls-3"/><path d="M78 34.28h5.98v12.6H78z" class="cls-3" transform="rotate(-22.5 81.006 40.598)"/><path d="M61.4 45.9h5.98v12.6H61.4z" class="cls-3" transform="rotate(-47.49 64.397 52.204)"/><path d="M51.27 63.45h5.98v12.6h-5.98z" class="cls-3" transform="rotate(-72.5 54.256 69.75)"/><path d="M46.2 86.94h12.6v5.98H46.2z" class="cls-3" transform="rotate(-7.48 52.502 89.928)"/></svg>