<svg height="182" viewBox="0 0 182 182" width="182" xmlns="http://www.w3.org/2000/svg"><path d="m167.42 37.93a42.51 42.51 0 0 0 -31.48-14.08 41.76 41.76 0 0 0 -23.78 7.43 45.14 45.14 0 0 0 -6.33 5.24c-.45.44-.89.91-1.34 1.38l-7.32 7.93-7.33-7.93a47 47 0 0 0 -6.52-5.83 43.13 43.13 0 0 0 -9.91-5.42 41.74 41.74 0 0 0 -38.77 4.61 43.11 43.11 0 0 0 -6.36 5.26c-.45.44-.92.91-1.36 1.41-17.17 18.5-17.17 48.61-.03 67.07l41.11 44.52 5.34 5.79 23.83 25.69 2.87-3.11 2.65-2.88 55.89-60.42 8.84-9.55c17.14-18.5 17.14-48.61 0-67.11zm-5.76 61.8-7.56 8.17-56.93 61.54-18.42-19.89-5.34-5.75-40.74-44c-14.41-15.59-14.41-40.92 0-56.49.63-.68 1.29-1.33 2-1.94a35.67 35.67 0 0 1 6.33-4.78 33.9 33.9 0 0 1 17.36-4.89 32.12 32.12 0 0 1 5.11.4 33.1 33.1 0 0 1 9.91 3.13 36.3 36.3 0 0 1 10.7 8l13.09 14.14 13.08-14.13c.63-.68 1.28-1.33 1.93-1.94a35 35 0 0 1 6.34-4.76 33.81 33.81 0 0 1 17.42-4.84 34.86 34.86 0 0 1 25.72 11.54c14.42 15.57 14.42 40.9 0 56.49z" fill="#b3025b"/><path d="m161.66 99.73-7.56 8.17-56.9 61.57-18.45-19.92 31-33.47 2.2-2.4.47-.53 7.51-8.11c17.14-18.5 17.14-48.61 0-67.11-.45-.47-.89-.94-1.36-1.39a33.81 33.81 0 0 1 17.42-4.84 34.86 34.86 0 0 1 25.72 11.54c14.37 15.57 14.37 40.9-.05 56.49z" fill="#f4bac1"/><path d="m159.88 113.15-1.31 1.44-1.33 1.49-54.55 58.93-2.65 2.88-5.78-5.32.03-.02 2.88-3.11 56.9-61.57.03.02zm-82.88 19.57h-.15a3.93 3.93 0 0 1 -3.66-3l-15.11-60.57-5.96 22.85a3.92 3.92 0 0 1 -3.8 3h-47.32v-7.89h44.29l9.07-34.81a3.93 3.93 0 0 1 3.8-2.94 3.93 3.93 0 0 1 3.79 3l15.61 62.44 14.63-43.8a3.92 3.92 0 0 1 7.39-.17l6.28 16.32h22.3v7.85h-25a3.92 3.92 0 0 1 -3.66-2.51l-3.32-8.64-15.42 46.15a3.94 3.94 0 0 1 -3.76 2.72z" fill="#b3025b"/><path d="m133.33 79.32a11.74 11.74 0 0 0 -11.7 11.73 11.58 11.58 0 0 0 .68 3.92 11.71 11.71 0 1 0 11-15.65zm0 15.6a3.88 3.88 0 1 1 3.87-3.87 3.88 3.88 0 0 1 -3.87 3.87z" fill="#b3025b"/><path d="m137.2 91.05a3.86 3.86 0 1 1 -3.87-3.88 3.89 3.89 0 0 1 3.87 3.88z" fill="#fff"/></svg>