<svg xmlns="http://www.w3.org/2000/svg" id="Layer_1" viewBox="0 0 76 60" width="76" height="60"><defs><style>.cls-1{fill:#fff}</style></defs><path d="M1.24 14.79l4.55 3.85c.72.61 1.43 1.24 2.17 1.82a1.16 1.16 0 0 1 .46 1v26.3c.35-.07.45-.35.61-.55q6.39-8 12.75-16.08c.37-.47.57-.4 1-.1 1.57 1.19 3.15 2.37 4.75 3.52.41.3.4.49.1.86q-6.12 7.68-12.22 15.38c-.18.24-.58.47-.44.75s.54.09.83.09h45c.14 0 .33.07.38-.12s-.09-.22-.17-.31L57.62 47l-8.54-10.74c-.26-.32-.33-.48.07-.76q2.48-1.79 4.9-3.64c.38-.28.55-.26.84.11q6.11 7.7 12.17 15.36a1 1 0 0 0 .49.42V22.93a1.28 1.28 0 0 1 .53-1.11c2.08-1.74 4.14-3.49 6.21-5.24l.39-.3a1 1 0 0 1 .09.64v41.13c0 .62-.12.8-.78.8h-72c-.5 0-.77 0-.77-.67V15.53z" class="cls-1"/><path d="M38 1.16h36c.63 0 .82.14.81.79v6.1a1 1 0 0 1-.44.9Q60.1 19.75 45.89 30.61a11.93 11.93 0 0 1-14-.08Q16.88 19.08 1.83 7.68a1.27 1.27 0 0 1-.6-1.19q.06-2.32 0-4.65c0-.58.16-.69.7-.69zm26 7.22H14.07c0 .22.19.27.3.35L36.32 25a4.49 4.49 0 0 0 5.29 0q9-6.67 18.06-13.37z" class="cls-1"/></svg>