<svg height="200" viewBox="0 0 200 200" width="200" xmlns="http://www.w3.org/2000/svg"><circle cx="100" cy="100" fill="#fff" r="99"/><path d="m161.56 100.13h-19.81v10.36l-3.9-4.01-5.98-6.11-.24-.24h-13.58v-12.77h-30.11v-41.15l32.84 24.05 7.49 5.49z" fill="#dfc9d8"/><g fill="#b3025b"><path d="m82.13 40.41v47h-49.49v69.42h19.92v18.47l18.5-18.47h47v-50.9h11.13l2.69 2.74 6 6.13 9.7 9.94v-18.81h19.81v-65.52zm29.93 110.39h-43.49l-10 10v-10h-19.95v-57.46h73.44zm49.5-50.67h-19.81v10.36l-3.9-4-6-6.11-.24-.24h-13.56v-12.78h-30.11v-41.15h73.62z"/><circle cx="142.99" cy="72.7" r="4.66"/><circle cx="124.75" cy="72.7" r="4.66"/><circle cx="106.51" cy="72.7" r="4.66"/><path d="m83.4 142.94h-16.12v-12.81h-12.79v-16.13h12.79v-12.78h16.12v12.78h12.79v16.12h-12.79z"/></g><path d="m90.21 119.98v4.17h-12.8v12.81h-4.16v-12.81h-12.79v-4.17h12.79v-12.79h4.16v12.79z" fill="#dfc9d8"/></svg>