<svg xmlns="http://www.w3.org/2000/svg" id="Layer_1" viewBox="0 0 360 80" width="360" height="80"><defs><style>.cls-1{fill:#fff}</style></defs><path d="M86.56 4.3v6.3A13 13 0 0 0 78 7c-2.93 0-4.52 1.44-4.52 3.48 0 1.73.65 3.12 5.36 5.7 6.4 3.52 9.13 6 9.13 11.07 0 5.4-4.37 9.27-10.72 9.27a19.11 19.11 0 0 1-10-3v-6.85c3 3 6.2 4.56 9.48 4.56 2.92 0 4.71-1.68 4.71-3.82s-.64-3.37-6.79-6.69C70.24 18.24 67 15.61 67 10.65s4.12-8.88 10.67-8.88a16.57 16.57 0 0 1 8.89 2.53zm27.49 20.24v.89H97.83a6.84 6.84 0 0 0 7.14 6.4 16.44 16.44 0 0 0 8.59-2.63v4.66a17.17 17.17 0 0 1-9.56 2.63c-6.89 0-12-4.66-12-12.15 0-6.85 4.41-11.86 11.55-11.86 5.84 0 10.5 4.27 10.5 12.06zm-5.61-2.29c-.14-3.37-2-5.4-5.1-5.4a5.44 5.44 0 0 0-5.51 5.4zm16.23-20.04v33.84h-5.8V2.21zm19.21.05v4.81a9.27 9.27 0 0 0-2.78-.44c-2.33 0-3.72 1.34-3.72 5.31v1h4.12v4.61h-4.12v18.5h-5.86V17.54h-3.42v-4.61h3.42v-.85c0-6.49 3.33-10.26 8.74-10.26a13.81 13.81 0 0 1 3.62.44zm13.55 19.4v5.8h-13.3v-5.8zM182.09 4.3v6.3A13.05 13.05 0 0 0 173.5 7c-2.92 0-4.5 1.41-4.5 3.45 0 1.73.64 3.12 5.36 5.7 6.4 3.52 9.13 6 9.13 11.07 0 5.4-4.37 9.27-10.72 9.27a19.11 19.11 0 0 1-10-3v-6.82c3 3 6.2 4.56 9.47 4.56 2.93 0 4.72-1.68 4.72-3.82s-.65-3.37-6.8-6.69c-4.36-2.48-7.59-5.11-7.59-10.07s4.12-8.88 10.67-8.88a16.6 16.6 0 0 1 8.85 2.53zm11.22 8.63v13.44c0 4 1.54 5.46 4.22 5.46 2 0 3.91-1.24 5.35-3.37V12.93h5.81v23.12h-5.81V33a10.07 10.07 0 0 1-7.44 3.52c-4.46 0-7.94-2.43-7.94-10.07V12.93zm34.63-10.72V7a11.1 11.1 0 0 0-2.53-.34c-2.73 0-4 1.39-4 5.36v.94h8.29v-1.57c0-5.66 3.27-9.62 9-9.62a10.38 10.38 0 0 1 3 .44V7a13.57 13.57 0 0 0-2.49-.34c-2.08 0-3.72 1.29-3.72 4.71v1.59h4.82v4.61h-4.82v18.48h-5.8V17.54h-8.29v18.51h-5.85V17.54h-3.42v-4.61h3.42v-1.44c0-6.15 3.62-9.72 9.08-9.72a10.35 10.35 0 0 1 3.31.44zm21.73 4.27a3 3 0 0 1-2.93 3 3 3 0 0 1-3-3 3 3 0 0 1 3-2.93 2.93 2.93 0 0 1 2.93 2.93zm0 6.45v23.12h-5.8V12.93zM273.35 14v5.41a12.17 12.17 0 0 0-6.35-1.82c-4.07 0-6.5 3.13-6.5 6.85 0 3.42 2 7 7 7a15.57 15.57 0 0 0 6.25-1.49v5.15a19 19 0 0 1-7.09 1.39c-9.42 0-12.2-7.09-12.2-11.8 0-6.35 3.87-12.21 11.85-12.21a16.6 16.6 0 0 1 7.04 1.52zM285 6.48a3 3 0 1 1-3-2.93 3 3 0 0 1 3 2.93zm0 6.45v23.12h-5.81V12.93zm26.86 11.61v.89h-16.23a6.85 6.85 0 0 0 7.14 6.4 16.41 16.41 0 0 0 8.59-2.63v4.66a17.15 17.15 0 0 1-9.58 2.63c-6.89 0-12-4.66-12-12.15 0-6.85 4.41-11.86 11.56-11.86 5.85 0 10.52 4.27 10.52 12.06zm-5.61-2.29c-.15-3.37-2-5.4-5.11-5.4a5.44 5.44 0 0 0-5.51 5.4zm31.61-.25v14h-5.81V22.6c0-4.17-1.88-5.41-4.26-5.41-2 0-3.82 1.15-5.31 3.38v15.48h-5.8V12.93h5.8V16a10 10 0 0 1 7.39-3.52c5.36 0 7.99 3.72 7.99 9.52zm12.31-14.58h.4v5.51H358v4.61h-7.44v9.77c0 2.34.49 4.22 3.27 4.22a10.35 10.35 0 0 0 5.17-1.64v5a14.72 14.72 0 0 1-6.55 1.63c-5.11 0-7.69-2.63-7.69-8.63V17.54h-3.87v-.79zM86.56 45.77v6.3A13.08 13.08 0 0 0 78 48.45c-2.93 0-4.52 1.44-4.52 3.47 0 1.74.65 3.13 5.36 5.71C85.22 61.15 88 63.58 88 68.69 88 74.1 83.58 78 77.23 78a19.12 19.12 0 0 1-10-3v-6.86c3 3 6.2 4.57 9.48 4.57 2.92 0 4.71-1.69 4.71-3.82s-.64-3.38-6.79-6.7C70.24 59.71 67 57.08 67 52.12s4.12-8.88 10.67-8.88a16.57 16.57 0 0 1 8.89 2.53zM114.05 66v.89H97.83A6.84 6.84 0 0 0 105 73.3a16.44 16.44 0 0 0 8.59-2.63v4.67A17.26 17.26 0 0 1 104 78c-6.89 0-12-4.67-12-12.16C91.93 59 96.34 54 103.48 54c5.91 0 10.57 4.22 10.57 12zm-5.61-2.28c-.14-3.38-2-5.41-5.1-5.41a5.44 5.44 0 0 0-5.51 5.41zm31.61-.24v14h-5.8V64.07c0-4.16-1.88-5.4-4.27-5.4-2 0-3.82 1.14-5.31 3.37v15.48h-5.8V54.4h5.8v3.08a10.06 10.06 0 0 1 7.4-3.53c5.36.05 7.98 3.73 7.98 9.53zM150.83 48a3 3 0 1 1-3-2.93 3 3 0 0 1 3 2.93zm-.05 6.45v23.07H145V54.4zM180.85 66c0 7.94-6.15 12-12.7 12-8.29 0-12.56-5.91-12.56-11.91 0-6.9 4.72-12.11 12.66-12.11 7.54.02 12.6 4.89 12.6 12.02zm-19.25 0c0 4.51 2.78 7.19 6.65 7.19s6.54-2.92 6.54-7.19c0-4.86-3.07-7.19-6.74-7.19S161.6 61.5 161.6 66zm41.87-9.71l-2.62 5.45a6.44 6.44 0 0 0-4.17-2.08c-2.38 0-4.91 2.23-5.41 6.35v11.51h-5.8V54.4h5.8v5.41c2.18-4 4.52-5.86 7-5.86a8 8 0 0 1 5.2 2.34zM213.65 54a14.9 14.9 0 0 1 7.35 1.89v4.91c-2.73-1.64-4.66-2.38-6.7-2.38s-2.72.79-2.72 1.64c0 1 .3 1.63 4.36 3.72 3.42 1.73 6.2 3.82 6.2 7.39 0 3.27-2.48 6.8-8.33 6.8a17.9 17.9 0 0 1-8.14-2v-5.25c2.38 1.69 5.06 2.83 7.2 2.83 2.33 0 3.37-.94 3.37-1.93 0-1.34-.59-1.89-5-4.32-3.67-1.89-5.56-4-5.56-7-.02-3.52 3.11-6.3 7.97-6.3zm24.08 7a1.65 1.65 0 1 1-1.66-1.63 1.66 1.66 0 0 1 1.66 1.63zm0 3.6v12.92h-3.24V64.64zm15.18 5.1v7.82h-3.24V70c0-2.32-1-3-2.37-3a3.62 3.62 0 0 0-3 1.88v8.63h-3.2V64.64h3.24v1.71a5.57 5.57 0 0 1 4.12-2c2.98.04 4.45 2.11 4.45 5.35zM266 65.24v3a6.72 6.72 0 0 0-3.54-1 3.58 3.58 0 0 0-3.63 3.81 3.68 3.68 0 0 0 3.93 3.9 8.92 8.92 0 0 0 3.49-.83V77a10.65 10.65 0 0 1-4 .78c-5.25 0-6.8-4-6.8-6.58 0-3.54 2.16-6.8 6.61-6.8a9.34 9.34 0 0 1 3.94.84zm7 10.54a2 2 0 1 1-2.05-2 2.06 2.06 0 0 1 2.05 2zM40.54 67a8.18 8.18 0 0 1-7.09 12.27H9.18A8.18 8.18 0 0 1 2.1 67l2.2-3.8 6.87-11.92L3.74 38.4l-1.9-3.3L7.29 32l20.76 36h-7.26l-3.64-6.3-2.34-4.06-5.06 8.71-2.19 3.79a1.85 1.85 0 0 0 0 1.89 1.83 1.83 0 0 0 1.62.97h24.27a1.85 1.85 0 0 0 1.64-1 1.87 1.87 0 0 0 0-1.89L18.6 41.57 2.1 13A8.19 8.19 0 0 1 9.18.74h24.27A8.19 8.19 0 0 1 40.54 13l-2.19 3.8-6.87 11.89L37 38.35l3.79 6.56-5.45 3.15-20.76-36h7.26l3.64 6.29 2.32 4 5.06-8.75 2.19-3.79a1.86 1.86 0 0 0 0-1.88 1.84 1.84 0 0 0-1.6-.93H9.18a1.81 1.81 0 0 0-1.62 1 1.83 1.83 0 0 0 0 1.88l16.49 28.55z" class="cls-1"/></svg>