<svg height="76" viewBox="0 0 76 76" width="76" xmlns="http://www.w3.org/2000/svg"><path d="m57 74.87a31.05 31.05 0 0 1 -9.86-2 69.81 69.81 0 0 1 -20.83-12.09 77.18 77.18 0 0 1 -20.45-25.46 51.54 51.54 0 0 1 -4.38-12.38c-1.33-6.25.63-11.27 5.36-15.34a28.34 28.34 0 0 1 12.16-6.24 5.3 5.3 0 0 1 5 1 6 6 0 0 1 1.54 2.14c2.29 5.26 4.86 10.39 7.14 15.66a12.55 12.55 0 0 1 .94 3.07 4.26 4.26 0 0 1 -.57 2.88 11.39 11.39 0 0 1 -1.82 2.22q-1.55 1.55-3.12 3.08a.46.46 0 0 0 -.08.68 47.82 47.82 0 0 0 15.83 15.79.49.49 0 0 0 .72-.1c1.3-1.34 2.58-2.7 4-4a5 5 0 0 1 3.94-1.58 11.07 11.07 0 0 1 2.88.78c3.41 1.35 6.67 3 10 4.53 2.19 1 4.38 1.95 6.54 3a4.88 4.88 0 0 1 2.92 3.56 7.79 7.79 0 0 1 -.31 3.52 28.44 28.44 0 0 1 -7.4 12.76 14.74 14.74 0 0 1 -8.73 4.39c-.52.11-1.02.11-1.42.13zm-.55-6.57a7.37 7.37 0 0 0 5.29-1.92 21.11 21.11 0 0 0 6.33-9.92c.13-.4 0-.52-.38-.67q-7.29-3.3-14.56-6.62a.6.6 0 0 0 -.8.13c-2.15 2.17-4.33 4.31-6.48 6.48a.59.59 0 0 1 -.8.15 53.23 53.23 0 0 1 -25.05-25.05.62.62 0 0 1 .16-.84c2.15-2.12 4.28-4.26 6.43-6.37a.65.65 0 0 0 .16-.89c-.8-1.68-1.57-3.37-2.35-5.07l-4.28-9.31c-.12-.27-.18-.53-.6-.4a22.38 22.38 0 0 0 -9.52 5.67 7.87 7.87 0 0 0 -2.2 7.33 40 40 0 0 0 2.9 9.14 69.62 69.62 0 0 0 20 25.8 64 64 0 0 0 18.62 10.69 26 26 0 0 0 7.13 1.67z" fill="#fff"/></svg>