<svg xmlns="http://www.w3.org/2000/svg" id="Layer_1" viewBox="0 0 182 182" width="182" height="182"><defs><style>.cls-1{fill:#dfc9d8}.cls-2{fill:#b3025b}</style></defs><path d="M170.29 82.36h-26.01v13.61l-5.13-5.27-7.84-8.03-.32-.31h-17.84V65.59H73.61V11.55l43.13 31.59 9.84 7.2 43.71 32.02z" class="cls-1"/><path d="M66 4v61.59H1v91.16h26.16V181l24.29-24.25h61.7V90h14.62l3.54 3.61 7.84 8 12.75 13.06V90h26V4zm39.3 144.89H48.18L35 162.06v-13.17H8.85V73.44h96.45zm65-66.53h-26V96l-5.13-5.27-7.84-8-.32-.32h-17.86V65.59H73.61v-54h96.68z" class="cls-2"/><circle cx="145.9" cy="46.34" r="6.12" class="cls-2"/><circle cx="121.95" cy="46.34" r="6.12" class="cls-2"/><circle cx="98" cy="46.34" r="6.12" class="cls-2"/><path d="M67.66 138.58H46.49v-16.82h-16.8v-21.17h16.8V83.8h21.17v16.79h16.8v21.17h-16.8z" class="cls-2"/><path d="M76.59 108.43v5.47H59.8v16.82h-5.47V113.9h-16.8v-5.47h16.8v-16.8h5.47v16.8h16.79z" class="cls-1"/></svg>