<svg height="84" viewBox="0 0 62 84" width="62" xmlns="http://www.w3.org/2000/svg"><g fill="#b3025b"><path d="m60.91 30a39.65 39.65 0 0 1 -5.39 19.92 123.46 123.46 0 0 1 -10.89 15.89c-4.36 5.62-8.78 11.19-13.16 16.82-.25.31-.41.58-.79.08-6.68-8.65-13.68-17.01-19.91-26.03a55.59 55.59 0 0 1 -8-15.51c-2.23-7.58-2.53-15.17.65-22.57 4.49-10.41 12.44-16.6 23.67-18.29 15.3-2.26 30 8.16 33.18 23.38q.28 1.33.45 2.7a19.93 19.93 0 0 1 .19 3.61zm-7-.14a19.83 19.83 0 0 0 -.3-3.62 22.81 22.81 0 0 0 -24.49-19.14c-8.12.73-14.12 4.81-18.12 11.9-3.26 5.7-3.46 11.86-2 18.16a42.62 42.62 0 0 0 6.29 13.54c4.71 7.17 10.21 13.73 15.41 20.51.41.55.57.13.78-.14 2.85-3.66 5.72-7.31 8.56-11a106.39 106.39 0 0 0 9.45-13.87 33.37 33.37 0 0 0 4.41-16.38z"/><path d="m21.6 30.3a9.45 9.45 0 1 1 9.4 9.53 9.39 9.39 0 0 1 -9.4-9.53z"/></g></svg>